<?xml version="1.0" encoding="utf-8"?>
<!-- Generator: Adobe Illustrator 16.0.0, SVG Export Plug-In . SVG Version: 6.00 Build 0)  -->
<!DOCTYPE svg PUBLIC "-//W3C//DTD SVG 1.1//EN" "http://www.w3.org/Graphics/SVG/1.1/DTD/svg11.dtd">
<svg version="1.1" id="Layer_1" xmlns="http://www.w3.org/2000/svg" xmlns:xlink="http://www.w3.org/1999/xlink" x="0px" y="0px"
	 width="540px" height="224px" viewBox="0 0 540 224" enable-background="new 0 0 540 224" xml:space="preserve">
<g>
	<path fill="#F05147" d="M74.443,118.187c-8.692,3.787-16.472,8.694-23.347,14.711v84.479H6.121V76.384h22.917l12.604,20.101
		c6.683-5.244,14.417-9.95,23.204-14.129c8.782-4.174,16.709-6.263,23.776-6.263l8.88,36.413
		C90.816,112.506,83.131,114.399,74.443,118.187z"/>
	<path fill="#F05147" d="M179.144,71.723c14.131,0,26.068,3.304,35.808,9.904c9.74,6.604,17.044,15.439,21.915,26.509
		c4.87,11.07,7.305,23.5,7.305,37.288v13.691h-89.09c4.199,16.509,16.422,24.761,36.667,24.761c13.177,0,26.256-3.687,39.246-11.07
		l12.604,31.753c-6.495,4.856-14.467,8.739-23.92,11.652s-19.815,4.369-31.081,4.369c-25.401,0-45.405-6.504-60.014-19.518
		c-14.61-13.008-21.915-31.07-21.915-54.183c0-15.148,3.053-28.402,9.167-39.764c6.109-11.361,14.654-20.1,25.638-26.217
		C152.454,74.782,165.009,71.723,179.144,71.723z M177.999,109.302c-6.302,0-11.602,2.185-15.899,6.554s-6.831,10.15-7.591,17.333
		h46.98c-1.146-7.183-3.679-12.963-7.591-17.333C189.98,111.486,184.681,109.302,177.999,109.302z"/>
	<path fill="#F05147" d="M401.149,76.093l-54.715,141.284h-40.678l-50.99-134.001l42.396-12.526l29.792,87.975l28.646-82.731
		H401.149z"/>
	<path fill="#F05147" d="M466.175,31.522c0,6.8-2.435,12.672-7.305,17.624c-4.869,4.952-10.742,7.429-17.617,7.429
		c-6.688,0-12.461-2.477-17.331-7.429s-7.305-10.824-7.305-17.624c0-6.991,2.435-12.963,7.305-17.916s10.644-7.428,17.331-7.428
		c6.875,0,12.748,2.476,17.617,7.428C463.74,18.559,466.175,24.531,466.175,31.522z M463.884,76.093v141.284h-44.975V76.093H463.884
		z"/>
	<path fill="#F05147" d="M534.637,193.489c0,6.604-2.247,12.235-6.731,16.896c-4.49,4.661-10.076,6.991-16.759,6.991
		c-6.687,0-12.317-2.33-16.901-6.991c-4.583-4.661-6.875-10.292-6.875-16.896c0-6.795,2.292-12.526,6.875-17.187
		c4.584-4.661,10.215-6.992,16.901-6.992c6.683,0,12.269,2.331,16.759,6.992C532.39,180.963,534.637,186.694,534.637,193.489z"/>
</g>
</svg>
