<svg xmlns="http://www.w3.org/2000/svg" viewBox="0 0 2404.24 501.88"><defs><style>.cls-1{isolation:isolate;}.cls-2{fill:#1c1e43;}</style></defs><g id="Ellipse_1" data-name="Ellipse 1" class="cls-1"><path class="cls-2" d="M187.27,265.55a206,206,0,0,0-53.63,33.23V489.6H30.33V171.13H83l29,45.4a283.74,283.74,0,0,1,53.29-31.91q30.27-14.15,54.62-14.15l20.4,82.25Q217.2,252.72,187.27,265.55Z"/><path class="cls-2" d="M427.76,160.6q48.69,0,82.25,22.37a138.34,138.34,0,0,1,50.34,59.88q16.78,37.52,16.78,84.23V358H372.49q14.47,55.94,84.23,55.93,45.39,0,90.14-25l28.95,71.72Q553.44,477.11,520.87,487t-71.39,9.87q-87.53,0-137.85-44.09T261.29,330.37q0-51.33,21.06-89.82t58.89-59.22Q379.07,160.6,427.76,160.6Zm-2.63,84.88q-21.7,0-36.52,14.81t-17.43,39.15H479.09q-3.94-24.33-17.44-39.15T425.13,245.48Z"/><path class="cls-2" d="M937.7,170.47,812,489.6H718.59L601.47,186.92l97.38-28.29,68.43,198.71,65.8-186.87Z"/><path class="cls-2" d="M1087.07,69.8q0,23-16.78,39.81a55.19,55.19,0,0,1-40.47,16.78q-23,0-39.81-16.78T973.23,69.8A55.19,55.19,0,0,1,990,29.33q16.79-16.77,39.81-16.78a55.19,55.19,0,0,1,40.47,16.78A55.19,55.19,0,0,1,1087.07,69.8Zm-5.27,100.67V489.6H978.5V170.47Z"/><path class="cls-2" d="M1297,160.6q48.69,0,82.25,22.37a138.41,138.41,0,0,1,50.34,59.88q16.77,37.52,16.78,84.23V358H1241.69q14.46,55.94,84.22,55.93,45.4,0,90.15-25l29,71.72q-22.38,16.46-54.94,26.32t-71.4,9.87q-87.51,0-137.85-44.09t-50.33-122.38q0-51.33,21-89.82t58.89-59.22Q1248.26,160.6,1297,160.6Zm-2.63,84.88q-21.72,0-36.52,14.81t-17.44,39.15h107.91q-3.94-24.33-17.43-39.15T1294.33,245.48Z"/><path class="cls-2" d="M1957.58,170.47l-104,319.13h-90.8L1708.2,309.31,1654.9,489.6h-90.8l-96.73-302.68,97.39-28.29,48,194.77,44.75-182.93h104l48,182.93L1853,170.47Z"/><path class="cls-2" d="M2103.66,496.84q-26.32,0-63.83-8.55T1980,462l30.26-67.12A236.34,236.34,0,0,0,2055.3,411q24.67,6.27,41.78,6.25,15.8,0,28-5.59t12.17-15.46q0-8.55-11.52-16.45t-31.91-14.48q-48-16.44-79-40.8t-30.93-61.85q0-47.37,35.54-74.68t97.38-27.31q25,0,58.23,8.23t56.26,25.33l-29.61,67.12q-46.07-20.4-81.59-20.4-15.15,0-25,5.92t-9.87,15.13q0,10.54,41.45,25,109.88,38.16,109.89,106.59,0,49.35-33.89,76.33T2103.66,496.84Z"/><path class="cls-2" d="M2380,435.65a52.56,52.56,0,0,1-15.47,38.16q-15.47,15.79-38.49,15.79t-38.82-15.79a52,52,0,0,1-15.79-38.16q0-23,15.79-38.83T2326.06,381q23,0,38.49,15.79T2380,435.65Z"/></g></svg>