<svg xmlns="http://www.w3.org/2000/svg" viewBox="0 0 824.4706 824.4706"><defs><style>.cls-1{isolation:isolate;}.cls-2{fill:#f05147;}.cls-3{fill:#1c1e43;}</style></defs><g id="paleta_nueva_Imagen" data-name="paleta nueva Imagen"><g class="cls-1"><path class="cls-2" d="M158.3119,355.8825a121.7682,121.7682,0,0,0-31.79,20.03V490.9363H65.2856V298.9653H96.4894l17.1623,27.3681a167.4611,167.4611,0,0,1,31.5945-19.2372q17.9363-8.525,32.3732-8.5271l12.092,49.5789Q176.0538,348.148,158.3119,355.8825Z"/><path class="cls-2" d="M300.8743,292.6192q28.86,0,48.7554,13.4852a83.0546,83.0546,0,0,1,29.8395,36.0944q9.9476,22.6078,9.9469,50.7694V411.61H268.11q8.5735,33.7184,49.9254,33.7137,26.9159,0,53.4386-15.0726l17.1609,43.2342q-13.2643,9.92-32.5682,15.8659a143.1865,143.1865,0,0,1-42.32,5.9485q-51.8805,0-81.7164-26.5747-29.8366-26.5685-29.838-73.7743,0-30.9372,12.4807-54.1406a87.1628,87.1628,0,0,1,34.91-35.6968Q272.0071,292.6192,300.8743,292.6192Zm-1.56,51.1656a29.1635,29.1635,0,0,0-21.6476,8.9242q-8.7776,8.9249-10.3369,23.6006h63.9689q-2.3421-14.67-10.3369-23.6006Q312.9629,343.7852,299.3143,343.7848Z"/><path class="cls-2" d="M603.1573,298.5691l-74.5,192.3672H473.2721l-69.43-182.4519,57.726-17.055L502.135,411.2135l39.0063-112.6444Z"/><path class="cls-2" d="M691.6977,237.8837a33.0563,33.0563,0,0,1-9.9456,23.9961,32.4221,32.4221,0,0,1-23.989,10.1145A31.9756,31.9756,0,0,1,634.1654,261.88a33.0583,33.0583,0,0,1-9.9469-23.9961,33.5286,33.5286,0,0,1,9.9469-24.3931,31.9776,31.9776,0,0,1,23.5977-10.1146,32.4241,32.4241,0,0,1,23.989,10.1146A33.5266,33.5266,0,0,1,691.6977,237.8837Zm-3.12,60.6854V490.9363H627.34V298.5691Z"/><path class="cls-2" d="M784.9155,458.413a31.9766,31.9766,0,0,1-9.1655,23.0042,30.3953,30.3953,0,0,1-22.8191,9.5191,31.0111,31.0111,0,0,1-23.0125-9.5191,31.6021,31.6021,0,0,1-9.3619-23.0042,32.0832,32.0832,0,0,1,9.3619-23.4011,31.0078,31.0078,0,0,1,23.0125-9.5213,30.3921,30.3921,0,0,1,22.8191,9.5213A32.47,32.47,0,0,1,784.9155,458.413Z"/></g><path class="cls-3" d="M577.6454,586.41a22.1,22.1,0,0,1-10.3848-2.3789,18.1843,18.1843,0,0,1,0-32.36,22.1124,22.1124,0,0,1,10.3848-2.3789,19.8774,19.8774,0,0,1,9.916,2.3789,14.5084,14.5084,0,0,1,6.2305,6.8l-8.1065,4.3554a9.4082,9.4082,0,0,0-3.5175-3.7519,9.0987,9.0987,0,0,0-4.59-1.2061,9.6713,9.6713,0,0,0-4.8242,1.2061,8.7226,8.7226,0,0,0-3.3828,3.417,12.21,12.21,0,0,0,0,10.72,8.7292,8.7292,0,0,0,3.3828,3.417,9.6713,9.6713,0,0,0,4.8242,1.2061,9.2926,9.2926,0,0,0,4.59-1.1729,9.0769,9.0769,0,0,0,3.5175-3.7851l8.1065,4.4218a14.5552,14.5552,0,0,1-6.2305,6.7334A19.8669,19.8669,0,0,1,577.6454,586.41Z"/><path class="cls-3" d="M599.8222,585.8737V549.8278h9.9824v10.1836l-1.4063-2.9473a11.5779,11.5779,0,0,1,5.1582-5.7959,17.5388,17.5388,0,0,1,8.6436-1.9765V558.94q-.671-.0658-1.2061-.1006-.5376-.0336-1.1386-.0342a9.8091,9.8091,0,0,0-6.9346,2.4463q-2.6484,2.4463-2.6465,7.6045v17.0176Z"/><path class="cls-3" d="M674.5946,549.2917a16.3657,16.3657,0,0,1,7.6045,1.709,12.2851,12.2851,0,0,1,5.2256,5.2255,18.783,18.783,0,0,1,1.9092,9.0118v20.6357H678.8827V566.8454q0-4.3536-1.81-6.4317a6.3963,6.3963,0,0,0-5.0918-2.0771,8.06,8.06,0,0,0-4.0869,1.0391,6.9773,6.9773,0,0,0-2.8144,3.1152,12.1563,12.1563,0,0,0-1.0049,5.293v18.09H653.6229V566.8454q0-4.3536-1.7754-6.4317a6.2933,6.2933,0,0,0-5.0586-2.0771,8.06,8.06,0,0,0-4.0869,1.0391,6.9753,6.9753,0,0,0-2.8134,3.1152,12.1563,12.1563,0,0,0-1.0049,5.293v18.09H628.4315V549.8278h9.9824v9.8486l-1.8759-2.8808a12.9072,12.9072,0,0,1,5.3271-5.5948,15.988,15.988,0,0,1,7.8721-1.9091,15.1306,15.1306,0,0,1,8.6767,2.5127,12.1478,12.1478,0,0,1,4.9249,7.6709l-3.6856-1.0049a14.4268,14.4268,0,0,1,5.7959-6.6992A16.9544,16.9544,0,0,1,674.5946,549.2917Z"/></g></svg>