<svg xmlns="http://www.w3.org/2000/svg" viewBox="0 0 3611.4252 753.8824"><defs><style>.cls-1{fill:#fff;}.cls-2{isolation:isolate;}.cls-3{fill:#1c1e43;}</style></defs><g id="Capa_6" data-name="Capa 6"><rect class="cls-1" x="-0.7059" width="3611.2941" height="753.8824"/></g><g id="Ellipse_1" data-name="Ellipse 1" class="cls-2"><path class="cls-3" d="M1103.3593,234.6988q37.9922,0,85,12,46.9922,12,82,38l-44,109q-34.0078-15.9844-59-22.5a214.371,214.371,0,0,0-54-6.5q-47.0157,0-78.5,36-31.5,36-31.5,92,0,56.0155,31.5,90,31.5,34.0077,78.5,34a206.709,206.709,0,0,0,54-7q25.9922-6.9845,59-23l44,110q-34.0078,27-80.5,38-46.5,10.9921-86.5,11-78,0-137.5-30-59.5078-30-92-87.5-32.5078-57.4923-32.5-135.5,0-78,32.5-136.5,32.4843-58.5,92-90Q1025.3436,234.6988,1103.3593,234.6988Z"/><path class="cls-3" d="M1573.8485,394.1988a312.9108,312.9108,0,0,0-81.5,50.5v290h-157v-484h80l44,69q34.9923-27,81-48.5,45.9844-21.4923,83-21.5l31,125Q1619.333,374.6988,1573.8485,394.1988Z"/><path class="cls-3" d="M2504.3451,416.6988v318h-156v-297q0-36.9844-11.5-56.5-11.5077-19.5-42.5-19.5-21,0-47,11.5-26.0155,11.5077-58,30.5v331h-156v-297q0-36.9844-11.5-56.5-11.5077-19.5-42.5-19.5-21,0-47.5,11.5-26.5077,11.5077-58.5,30.5v331h-157v-485h97l27,51a441.5331,441.5331,0,0,1,93-48.5q48.9845-18.4923,92-18.5,97.9923,0,137,63a456.6892,456.6892,0,0,1,90-45.5q46.9923-17.4845,89-17.5,87,0,125,47.5Q2504.3374,328.7065,2504.3451,416.6988Z"/><path class="cls-3" d="M2748.3373,652.6988q0,34.0077-23.5,58-23.5079,24-58.5,24-35.0156,0-59-24-24-24-24-58,0-34.9923,24-59,24-24,59-24,34.9921,0,58.5,24Q2748.3217,617.6988,2748.3373,652.6988Z"/></g></svg>