<svg xmlns="http://www.w3.org/2000/svg" viewBox="0 0 3611.4252 753.8824"><defs><style>.cls-1{fill:#2a3042;}.cls-2{isolation:isolate;}.cls-3{fill:#fff;}</style></defs><g id="Capa_6" data-name="Capa 6"><rect class="cls-1" x="-0.7059" width="3611.2941" height="753.8824"/></g><g id="Ellipse_1" data-name="Ellipse 1" class="cls-2"><path class="cls-3" d="M1103.349,234.7076q37.9923,0,85,12,46.9923,12,82,38l-44,109q-34.0077-15.9843-59-22.5a214.3745,214.3745,0,0,0-54-6.5q-47.0155,0-78.5,36-31.5,36-31.5,92,0,56.0157,31.5,90,31.5,34.0079,78.5,34a206.7037,206.7037,0,0,0,54-7q25.9923-6.9843,59-23l44,110q-34.0077,27-80.5,38-46.5,10.9922-86.5,11-78,0-137.5-30-59.5077-30-92-87.5-32.5077-57.4921-32.5-135.5,0-78,32.5-136.5,32.4845-58.5,92-90Q1025.3335,234.7076,1103.349,234.7076Z"/><path class="cls-3" d="M1573.8383,394.2076a312.9118,312.9118,0,0,0-81.5,50.5v290h-157v-484h80l44,69q34.9922-27,81-48.5,45.9843-21.4922,83-21.5l31,125Q1619.3226,374.7076,1573.8383,394.2076Z"/><path class="cls-3" d="M2504.3354,416.7076v318h-156v-297q0-36.9843-11.5-56.5-11.5078-19.5-42.5-19.5-21,0-47,11.5-26.0157,11.5079-58,30.5v331h-156v-297q0-36.9843-11.5-56.5-11.5078-19.5-42.5-19.5-21,0-47.5,11.5-26.5078,11.5079-58.5,30.5v331h-157v-485h97l27,51a441.5329,441.5329,0,0,1,93-48.5q48.9843-18.4922,92-18.5,97.9922,0,137,63a456.6946,456.6946,0,0,1,90-45.5q46.9922-17.4843,89-17.5,87,0,125,47.5Q2504.3276,328.7155,2504.3354,416.7076Z"/><path class="cls-3" d="M2748.3276,652.7076q0,34.0079-23.5,58-23.5079,24-58.5,24-35.0157,0-59-24-24-24-24-58,0-34.9921,24-59,24-24,59-24,34.9921,0,58.5,24Q2748.3119,617.7076,2748.3276,652.7076Z"/></g></svg>