<svg xmlns="http://www.w3.org/2000/svg" viewBox="0 0 3611.4252 753.8824"><defs><style>.cls-1{fill:#fff;}.cls-2{isolation:isolate;}.cls-3{fill:#1c1e43;}</style></defs><g id="Capa_6" data-name="Capa 6"><rect class="cls-1" x="1.4118" y="4.2353" width="3611.2941" height="753.8824"/></g><g id="Ellipse_1" data-name="Ellipse 1" class="cls-2"><path class="cls-3" d="M430.2748,382.7h-78v-122h78v-41q0-87.9845,58.5-138,58.5-49.9923,149.5-50,28.9923,0,63.5,11.5,34.5,11.5077,52.5,26.5l-45,109q-31.0077-15.9845-62-16-29.0155,0-45,20.5-16.0077,20.5077-16,55.5v22h113l29,122h-142v582h-156Z"/><path class="cls-3" d="M1042.27,745.7q-79.0079,0-139-29.5-60-29.4845-93.5-87-33.5157-57.4923-33.5-138.5,0-78,34.5-136,34.5-57.9844,95-89,60.4922-30.9844,138.5-31,78.9843,0,139.5,30.5,60.4921,30.5156,94,88.5,33.4921,58.0077,33.5,139,0,78-34.5,135t-95.5,87.5Q1120.2617,745.6918,1042.27,745.7Zm107-253q0-55.9923-28.5-92-28.5-36-75.5-36-49.0079,0-78,34.5-29.0157,34.5-29,91.5,0,57,28.5,91.5t76.5,34.5q48,0,77-34Q1149.2617,548.7152,1149.27,492.7Z"/><path class="cls-3" d="M1623.7641,394.2a312.9108,312.9108,0,0,0-81.5,50.5v290h-157v-484h80l44,69q34.9921-27,81-48.5,45.9844-21.4923,83-21.5l31,125Q1669.2485,374.7,1623.7641,394.2Z"/><path class="cls-3" d="M2554.2607,416.7v318h-156v-297q0-36.9844-11.5-56.5-11.5078-19.5-42.5-19.5-21,0-47,11.5-26.0157,11.5077-58,30.5v331h-156v-297q0-36.9844-11.5-56.5-11.5078-19.5-42.5-19.5-21,0-47.5,11.5-26.5079,11.5077-58.5,30.5v331h-157v-485h97l27,51a441.5283,441.5283,0,0,1,93-48.5q48.9843-18.4923,92-18.5,97.9922,0,137,63a456.6837,456.6837,0,0,1,90-45.5q46.9922-17.4845,89-17.5,87,0,125,47.5Q2554.2529,328.7073,2554.2607,416.7Z"/><path class="cls-3" d="M2815.2529,745.7q-40.0078,0-97-13-57-12.9845-91-40l46-102a359.1708,359.1708,0,0,0,68.5,24.5q37.5,9.5155,63.5,9.5,24,0,42.5-8.5,18.4922-8.4845,18.5-23.5,0-12.9845-17.5-25-17.5078-12-48.5-22-73.0078-24.9845-120-62-47.0157-36.9844-47-94,0-72,54-113.5,54-41.4844,148-41.5,37.9922,0,88.5,12.5,50.4843,12.5155,85.5,38.5l-45,102q-70.0078-30.9844-124-31-23.0157,0-38,9-15,9-15,23,0,16.0077,63,38,166.9922,58.0077,167,162,0,75-51.5,116Q2914.2372,745.7152,2815.2529,745.7Z"/><path class="cls-3" d="M3235.249,652.7q0,34.0077-23.5,58-23.5078,24-58.5,24-35.0157,0-59-24-24-24-24-58,0-34.9923,24-59,24-24,59-24,34.9922,0,58.5,24Q3235.2333,617.7,3235.249,652.7Z"/><rect class="cls-1" x="420.9412" y="746.3529" width="611.7647" height="222.1176"/></g></svg>