<svg xmlns="http://www.w3.org/2000/svg" viewBox="0 0 824.4706 824.4706"><defs><style>.cls-1{isolation:isolate;}.cls-2{fill:#f05147;}.cls-3{fill:#1c1e43;}</style></defs><g id="paleta_nueva_Imagen" data-name="paleta nueva Imagen"><g class="cls-1"><path class="cls-2" d="M158.3119,355.8825a121.7682,121.7682,0,0,0-31.79,20.03V490.9363H65.2856V298.9653H96.4894l17.1623,27.3681a167.4611,167.4611,0,0,1,31.5945-19.2372q17.9363-8.525,32.3732-8.5271l12.092,49.5789Q176.0538,348.148,158.3119,355.8825Z"/><path class="cls-2" d="M300.8743,292.6192q28.86,0,48.7554,13.4852a83.0546,83.0546,0,0,1,29.8395,36.0944q9.9476,22.6078,9.9469,50.7694V411.61H268.11q8.5735,33.7184,49.9254,33.7137,26.9159,0,53.4386-15.0726l17.1609,43.2342q-13.2643,9.92-32.5682,15.8659a143.1865,143.1865,0,0,1-42.32,5.9485q-51.8805,0-81.7164-26.5747-29.8366-26.5685-29.838-73.7743,0-30.9372,12.4807-54.1406a87.1628,87.1628,0,0,1,34.91-35.6968Q272.0071,292.6192,300.8743,292.6192Zm-1.56,51.1656a29.1635,29.1635,0,0,0-21.6476,8.9242q-8.7776,8.9249-10.3369,23.6006h63.9689q-2.3421-14.67-10.3369-23.6006Q312.9629,343.7852,299.3143,343.7848Z"/><path class="cls-2" d="M603.1573,298.5691l-74.5,192.3672H473.2721l-69.43-182.4519,57.726-17.055L502.135,411.2135l39.0063-112.6444Z"/><path class="cls-2" d="M691.6977,237.8837a33.0563,33.0563,0,0,1-9.9456,23.9961,32.4221,32.4221,0,0,1-23.989,10.1145A31.9756,31.9756,0,0,1,634.1654,261.88a33.0583,33.0583,0,0,1-9.9469-23.9961,33.5286,33.5286,0,0,1,9.9469-24.3931,31.9776,31.9776,0,0,1,23.5977-10.1146,32.4241,32.4241,0,0,1,23.989,10.1146A33.5266,33.5266,0,0,1,691.6977,237.8837Zm-3.12,60.6854V490.9363H627.34V298.5691Z"/><path class="cls-2" d="M784.9155,458.413a31.9766,31.9766,0,0,1-9.1655,23.0042,30.3953,30.3953,0,0,1-22.8191,9.5191,31.0111,31.0111,0,0,1-23.0125-9.5191,31.6021,31.6021,0,0,1-9.3619-23.0042,32.0832,32.0832,0,0,1,9.3619-23.4011,31.0078,31.0078,0,0,1,23.0125-9.5213,30.3921,30.3921,0,0,1,22.8191,9.5213A32.47,32.47,0,0,1,784.9155,458.413Z"/></g><path class="cls-3" d="M485.4086,557.6138v-8.04H510.4v8.04Zm5.5606,27.2022v-36.85a13.2466,13.2466,0,0,1,3.6181-9.7491q3.6181-3.65,10.3184-3.6513a20.2557,20.2557,0,0,1,4.3886.4687,10.2663,10.2663,0,0,1,3.584,1.4746l-2.747,7.57a7.1644,7.1644,0,0,0-1.9424-.9375,7.5952,7.5952,0,0,0-2.2783-.3349,4.6151,4.6151,0,0,0-3.5176,1.3066,5.4976,5.4976,0,0,0-1.2393,3.919v3.3505l.2676,4.4883V584.816Z"/><path class="cls-3" d="M532.309,585.3521a21.1109,21.1109,0,0,1-10.2168-2.4121,18.35,18.35,0,0,1-7.0352-6.6,19.08,19.08,0,0,1,0-19.1621,18.107,18.107,0,0,1,7.0352-6.5655,23.06,23.06,0,0,1,20.4014,0,17.9023,17.9023,0,0,1,7.0351,6.5323,18.33,18.33,0,0,1-7.0351,25.7949A21.1751,21.1751,0,0,1,532.309,585.3521Zm0-8.5762a9.1714,9.1714,0,0,0,4.69-1.206,8.5913,8.5913,0,0,0,3.2832-3.45,12.4388,12.4388,0,0,0,0-10.6865,8.646,8.646,0,0,0-3.2832-3.417,9.7215,9.7215,0,0,0-9.38,0,8.8675,8.8675,0,0,0-3.3164,3.417,12.1392,12.1392,0,0,0,0,10.6865,8.8077,8.8077,0,0,0,3.3164,3.45A9.1683,9.1683,0,0,0,532.309,576.7759Z"/><path class="cls-3" d="M559.0424,584.816V548.77h9.9824v10.1836l-1.4062-2.9473a11.5775,11.5775,0,0,1,5.1582-5.7959,17.5384,17.5384,0,0,1,8.6435-1.9766v9.6485q-.6708-.066-1.206-.1006c-.3584-.0225-.7373-.0342-1.1387-.0342a9.8087,9.8087,0,0,0-6.9346,2.4463q-2.6484,2.4463-2.6465,7.6045V584.816Z"/><path class="cls-3" d="M633.8139,548.2339a16.3672,16.3672,0,0,1,7.6045,1.709,12.2859,12.2859,0,0,1,5.2256,5.2256,18.7826,18.7826,0,0,1,1.9091,9.0117V584.816H638.102V565.7876q0-4.3534-1.81-6.4316a6.3964,6.3964,0,0,0-5.0918-2.0771,8.06,8.06,0,0,0-4.0869,1.039,6.9783,6.9783,0,0,0-2.8145,3.1153,12.1573,12.1573,0,0,0-1.0049,5.2929v18.09H612.8422V565.7876q0-4.3534-1.7754-6.4316a6.2933,6.2933,0,0,0-5.0586-2.0771,8.06,8.06,0,0,0-4.0869,1.039,6.9757,6.9757,0,0,0-2.8135,3.1153,12.1573,12.1573,0,0,0-1.0049,5.2929v18.09H587.6508V548.77h9.9824v9.8486l-1.876-2.8809a12.9072,12.9072,0,0,1,5.3272-5.5947,15.9881,15.9881,0,0,1,7.8721-1.9092,15.131,15.131,0,0,1,8.6767,2.5127,12.1483,12.1483,0,0,1,4.9248,7.6709l-3.6855-1.0049a14.4272,14.4272,0,0,1,5.7959-6.6992A16.9548,16.9548,0,0,1,633.8139,548.2339Z"/><path class="cls-3" d="M670.0609,585.3521a35.1478,35.1478,0,0,1-8.8779-1.1055,21.9912,21.9912,0,0,1-6.7334-2.78l3.4844-7.504a23.11,23.11,0,0,0,5.8623,2.5118,24.0438,24.0438,0,0,0,6.666.9716,10.9221,10.9221,0,0,0,5.126-.871,2.6762,2.6762,0,0,0,1.5078-2.4122,2.0526,2.0526,0,0,0-1.1728-1.9091,10.3168,10.3168,0,0,0-3.1153-.9717q-1.9438-.3341-4.2549-.67-2.3115-.3341-4.6562-.9043a15.7087,15.7087,0,0,1-4.2881-1.709,8.73,8.73,0,0,1-3.1152-3.082,9.61,9.61,0,0,1-1.1729-5.0245,9.72,9.72,0,0,1,1.9766-6.03,13.0661,13.0661,0,0,1,5.7285-4.12,24.0578,24.0578,0,0,1,8.9775-1.5078,36.3732,36.3732,0,0,1,7.5049.8037,20.3769,20.3769,0,0,1,6.3643,2.3457l-3.4834,7.4366a17.6814,17.6814,0,0,0-5.26-2.11,24.4018,24.4018,0,0,0-5.126-.5693,10.5128,10.5128,0,0,0-5.0918.9375,2.7637,2.7637,0,0,0-1.6074,2.4121,2.1711,2.1711,0,0,0,1.1719,2.01,10.6849,10.6849,0,0,0,3.1162,1.0722q1.9424.4029,4.2539.7041a38.67,38.67,0,0,1,4.6563.9043,16.799,16.799,0,0,1,4.2548,1.708,8.9342,8.9342,0,0,1,3.1153,3.0157,9.2214,9.2214,0,0,1,1.206,4.9912,9.38,9.38,0,0,1-2.01,5.93,13.1915,13.1915,0,0,1-5.7959,4.0527A25.4565,25.4565,0,0,1,670.0609,585.3521Z"/></g></svg>