<svg xmlns="http://www.w3.org/2000/svg" viewBox="0 0 824.4706 824.4706"><defs><style>.cls-1{isolation:isolate;}.cls-2{fill:#f05147;}.cls-3{fill:#1c1e43;}</style></defs><g id="paleta_nueva_Imagen" data-name="paleta nueva Imagen"><g class="cls-1"><path class="cls-2" d="M158.3119,355.8825a121.7682,121.7682,0,0,0-31.79,20.03V490.9363H65.2856V298.9653H96.4894l17.1623,27.3681a167.4611,167.4611,0,0,1,31.5945-19.2372q17.9363-8.525,32.3732-8.5271l12.092,49.5789Q176.0538,348.148,158.3119,355.8825Z"/><path class="cls-2" d="M300.8743,292.6192q28.86,0,48.7554,13.4852a83.0546,83.0546,0,0,1,29.8395,36.0944q9.9476,22.6078,9.9469,50.7694V411.61H268.11q8.5735,33.7184,49.9254,33.7137,26.9159,0,53.4386-15.0726l17.1609,43.2342q-13.2643,9.92-32.5682,15.8659a143.1865,143.1865,0,0,1-42.32,5.9485q-51.8805,0-81.7164-26.5747-29.8366-26.5685-29.838-73.7743,0-30.9372,12.4807-54.1406a87.1628,87.1628,0,0,1,34.91-35.6968Q272.0071,292.6192,300.8743,292.6192Zm-1.56,51.1656a29.1635,29.1635,0,0,0-21.6476,8.9242q-8.7776,8.9249-10.3369,23.6006h63.9689q-2.3421-14.67-10.3369-23.6006Q312.9629,343.7852,299.3143,343.7848Z"/><path class="cls-2" d="M603.1573,298.5691l-74.5,192.3672H473.2721l-69.43-182.4519,57.726-17.055L502.135,411.2135l39.0063-112.6444Z"/><path class="cls-2" d="M691.6977,237.8837a33.0563,33.0563,0,0,1-9.9456,23.9961,32.4221,32.4221,0,0,1-23.989,10.1145A31.9756,31.9756,0,0,1,634.1654,261.88a33.0583,33.0583,0,0,1-9.9469-23.9961,33.5286,33.5286,0,0,1,9.9469-24.3931,31.9776,31.9776,0,0,1,23.5977-10.1146,32.4241,32.4241,0,0,1,23.989,10.1146A33.5266,33.5266,0,0,1,691.6977,237.8837Zm-3.12,60.6854V490.9363H627.34V298.5691Z"/><path class="cls-2" d="M784.9155,458.413a31.9766,31.9766,0,0,1-9.1655,23.0042,30.3953,30.3953,0,0,1-22.8191,9.5191,31.0111,31.0111,0,0,1-23.0125-9.5191,31.6021,31.6021,0,0,1-9.3619-23.0042,32.0832,32.0832,0,0,1,9.3619-23.4011,31.0078,31.0078,0,0,1,23.0125-9.5213,30.3921,30.3921,0,0,1,22.8191,9.5213A32.47,32.47,0,0,1,784.9155,458.413Z"/></g><path class="cls-3" d="M641.9512,548.4692a16.7756,16.7756,0,0,1,7.6709,1.709,12.4012,12.4012,0,0,1,5.3272,5.2255,18.5227,18.5227,0,0,1,1.9424,9.0118v20.6357H646.44V566.0229q0-4.3536-1.9092-6.4317a6.9639,6.9639,0,0,0-5.3935-2.0771,9.4247,9.4247,0,0,0-4.4551,1.0391,7.2007,7.2007,0,0,0-3.082,3.1816,11.964,11.964,0,0,0-1.1055,5.4941v17.8223H620.042V535.3373h10.4522v23.65l-2.3457-3.0146a13.3509,13.3509,0,0,1,5.5615-5.5606A17.1489,17.1489,0,0,1,641.9512,548.4692Z"/><path class="cls-3" d="M666.3389,585.0512V549.0053h9.9824v10.1836l-1.4062-2.9473a11.5779,11.5779,0,0,1,5.1582-5.7959,17.5385,17.5385,0,0,1,8.6436-1.9765v9.6484q-.671-.0658-1.2061-.1006c-.3584-.0224-.7373-.0342-1.1387-.0342a9.8089,9.8089,0,0,0-6.9345,2.4463q-2.6485,2.4464-2.6465,7.6045v17.0176Z"/></g></svg>