<svg xmlns="http://www.w3.org/2000/svg" viewBox="0 0 3611.4252 753.8824"><defs><style>.cls-1{fill:#2a3042;}.cls-2{isolation:isolate;}.cls-3{fill:#fff;}</style></defs><g id="Capa_6" data-name="Capa 6"><rect class="cls-1" x="-0.7059" width="3611.2941" height="753.8824"/></g><g id="Ellipse_1" data-name="Ellipse 1" class="cls-2"><path class="cls-3" d="M1747.5581,425.6991v309h-156v-297q0-34.9921-15.5-55.5-15.5155-20.4843-45.5-20.5-42,0-114,42v331h-156v-695l156-11v252a458.946,458.946,0,0,1,80.5-34q41.4845-12.9843,79.5-13Q1747.5581,233.6991,1747.5581,425.6991Z"/><path class="cls-3" d="M2087.05,394.1991a312.9135,312.9135,0,0,0-81.5,50.5v290h-157v-484h80l44,69q34.9921-27,81-48.5,45.9844-21.4922,83-21.5l31,125Q2132.5347,374.6991,2087.05,394.1991Z"/><path class="cls-3" d="M2372.5464,652.6991q0,34.0078-23.5,58-23.5079,24-58.5,24-35.0156,0-59-24-24-24-24-58,0-34.9922,24-59,24-24,59-24,34.9921,0,58.5,24Q2372.5308,617.6991,2372.5464,652.6991Z"/></g></svg>