<svg xmlns="http://www.w3.org/2000/svg" viewBox="0 0 3611.4252 753.8824"><defs><style>.cls-1{fill:#fff;}.cls-2{isolation:isolate;}.cls-3{fill:#1c1e43;}</style></defs><g id="Capa_6" data-name="Capa 6"><rect class="cls-1" x="-0.7059" width="3611.2941" height="753.8824"/></g><g id="Ellipse_1" data-name="Ellipse 1" class="cls-2"><path class="cls-3" d="M1747.5689,425.7v309h-156v-297q0-34.9921-15.5-55.5-15.5157-20.4843-45.5-20.5-42,0-114,42v331h-156V39.7l156-11v252a458.9428,458.9428,0,0,1,80.5-34q41.4843-12.9843,79.5-13Q1747.5689,233.7,1747.5689,425.7Z"/><path class="cls-3" d="M2087.0611,394.2a312.9118,312.9118,0,0,0-81.5,50.5v290h-157v-484h80l44,69q34.9922-27,81-48.5,45.9843-21.4922,83-21.5l31,125Q2132.5454,374.7,2087.0611,394.2Z"/><path class="cls-3" d="M2372.5572,652.7q0,34.0078-23.5,58-23.5079,24-58.5,24-35.0157,0-59-24-24-24-24-58,0-34.9922,24-59,24-24,59-24,34.9921,0,58.5,24Q2372.5415,617.7,2372.5572,652.7Z"/></g></svg>