<svg xmlns="http://www.w3.org/2000/svg" viewBox="0 0 824.4706 824.4706"><defs><style>.cls-1{isolation:isolate;}.cls-2{fill:#f05147;}.cls-3{fill:#1c1e43;}</style></defs><g id="paleta_nueva_Imagen" data-name="paleta nueva Imagen"><g class="cls-1"><path class="cls-2" d="M158.3119,355.8825a121.7682,121.7682,0,0,0-31.79,20.03V490.9363H65.2856V298.9653H96.4894l17.1623,27.3681a167.4611,167.4611,0,0,1,31.5945-19.2372q17.9363-8.525,32.3732-8.5271l12.092,49.5789Q176.0538,348.148,158.3119,355.8825Z"/><path class="cls-2" d="M300.8743,292.6192q28.86,0,48.7554,13.4852a83.0546,83.0546,0,0,1,29.8395,36.0944q9.9476,22.6078,9.9469,50.7694V411.61H268.11q8.5735,33.7184,49.9254,33.7137,26.9159,0,53.4386-15.0726l17.1609,43.2342q-13.2643,9.92-32.5682,15.8659a143.1865,143.1865,0,0,1-42.32,5.9485q-51.8805,0-81.7164-26.5747-29.8366-26.5685-29.838-73.7743,0-30.9372,12.4807-54.1406a87.1628,87.1628,0,0,1,34.91-35.6968Q272.0071,292.6192,300.8743,292.6192Zm-1.56,51.1656a29.1635,29.1635,0,0,0-21.6476,8.9242q-8.7776,8.9249-10.3369,23.6006h63.9689q-2.3421-14.67-10.3369-23.6006Q312.9629,343.7852,299.3143,343.7848Z"/><path class="cls-2" d="M603.1573,298.5691l-74.5,192.3672H473.2721l-69.43-182.4519,57.726-17.055L502.135,411.2135l39.0063-112.6444Z"/><path class="cls-2" d="M691.6977,237.8837a33.0563,33.0563,0,0,1-9.9456,23.9961,32.4221,32.4221,0,0,1-23.989,10.1145A31.9756,31.9756,0,0,1,634.1654,261.88a33.0583,33.0583,0,0,1-9.9469-23.9961,33.5286,33.5286,0,0,1,9.9469-24.3931,31.9776,31.9776,0,0,1,23.5977-10.1146,32.4241,32.4241,0,0,1,23.989,10.1146A33.5266,33.5266,0,0,1,691.6977,237.8837Zm-3.12,60.6854V490.9363H627.34V298.5691Z"/><path class="cls-2" d="M784.9155,458.413a31.9766,31.9766,0,0,1-9.1655,23.0042,30.3953,30.3953,0,0,1-22.8191,9.5191,31.0111,31.0111,0,0,1-23.0125-9.5191,31.6021,31.6021,0,0,1-9.3619-23.0042,32.0832,32.0832,0,0,1,9.3619-23.4011,31.0078,31.0078,0,0,1,23.0125-9.5213,30.3921,30.3921,0,0,1,22.8191,9.5213A32.47,32.47,0,0,1,784.9155,458.413Z"/></g><path class="cls-3" d="M424.2252,584.9923v-36.045h9.9824v10.1836l-1.4062-2.9472a11.5838,11.5838,0,0,1,5.1582-5.7969,17.55,17.55,0,0,1,8.6445-1.9766v9.6485c-.4473-.043-.85-.0782-1.207-.1-.3575-.0235-.7364-.0352-1.1387-.0352a9.8067,9.8067,0,0,0-6.9336,2.4473q-2.6484,2.4462-2.6465,7.6035v17.0176Z"/><path class="cls-3" d="M470.3892,585.5294a23.2037,23.2037,0,0,1-10.82-2.4121,17.7922,17.7922,0,0,1-7.2031-6.6,18.0117,18.0117,0,0,1-2.5469-9.5489,18.311,18.311,0,0,1,2.5137-9.6133,17.8043,17.8043,0,0,1,6.8672-6.5664,21.5053,21.5053,0,0,1,19.3965-.1347,16.84,16.84,0,0,1,6.7344,6.4336,19.3316,19.3316,0,0,1,2.4785,10.0156c0,.4023-.0235.8613-.0664,1.373-.0469.5137-.0918.9961-.1348,1.4414H458.3287V563.82h23.7852l-4.02,1.8086a10.0361,10.0361,0,0,0-1.1386-4.8906,8.36,8.36,0,0,0-3.15-3.25,9.1637,9.1637,0,0,0-4.69-1.1719,9.3388,9.3388,0,0,0-4.7226,1.1719,8.2026,8.2026,0,0,0-3.1836,3.2832,10.3636,10.3636,0,0,0-1.1387,4.9921v1.6075a10.13,10.13,0,0,0,1.3066,5.1933,8.51,8.51,0,0,0,3.6856,3.416,12.4855,12.4855,0,0,0,5.5937,1.1739,13.5712,13.5712,0,0,0,5.0586-.8711,12.2941,12.2941,0,0,0,3.9863-2.6133l5.5606,6.0293a16.1924,16.1924,0,0,1-6.2305,4.3223A23.0788,23.0788,0,0,1,470.3892,585.5294Z"/><path class="cls-3" d="M503.8892,584.9923l-15.1425-36.045h10.7871l12.5957,31.02H506.77l13.0645-31.02h10.0507l-15.2089,36.045Z"/><path class="cls-3" d="M539.399,543.922a6.6221,6.6221,0,0,1-4.6894-1.6758,5.669,5.669,0,0,1,0-8.3067,6.6221,6.6221,0,0,1,4.6894-1.6758,6.8878,6.8878,0,0,1,4.6895,1.5743,5.1286,5.1286,0,0,1,1.8086,4.0547,5.7419,5.7419,0,0,1-1.7754,4.32A6.5261,6.5261,0,0,1,539.399,543.922Zm-5.2266,41.07v-36.045h10.4532v36.045Z"/><path class="cls-3" d="M572.2291,585.5294a23.2037,23.2037,0,0,1-10.82-2.4121,17.791,17.791,0,0,1-7.2031-6.6,18.0117,18.0117,0,0,1-2.5469-9.5489,18.3118,18.3118,0,0,1,2.5136-9.6133,17.805,17.805,0,0,1,6.8672-6.5664,21.5053,21.5053,0,0,1,19.3965-.1347,16.8392,16.8392,0,0,1,6.7344,6.4336,19.3306,19.3306,0,0,1,2.4785,10.0156c0,.4023-.0234.8613-.0664,1.373-.0469.5137-.0918.9961-.1348,1.4414H560.1685V563.82h23.7852l-4.0195,1.8086a10.0362,10.0362,0,0,0-1.1387-4.8906,8.3592,8.3592,0,0,0-3.15-3.25,9.1633,9.1633,0,0,0-4.6894-1.1719,9.3389,9.3389,0,0,0-4.7227,1.1719,8.2032,8.2032,0,0,0-3.1836,3.2832,10.3636,10.3636,0,0,0-1.1387,4.9921v1.6075a10.13,10.13,0,0,0,1.3067,5.1933,8.51,8.51,0,0,0,3.6855,3.416,12.4856,12.4856,0,0,0,5.5938,1.1739,13.5712,13.5712,0,0,0,5.0586-.8711,12.2963,12.2963,0,0,0,3.9863-2.6133l5.56,6.0293a16.1921,16.1921,0,0,1-6.23,4.3223A23.0791,23.0791,0,0,1,572.2291,585.5294Z"/><path class="cls-3" d="M604.1881,584.9923,591.19,548.9473h9.8477l10.7871,31.02h-4.6895l11.2559-31.02h8.8437l10.9219,31.02h-4.6914l11.1231-31.02h9.2461L640.77,584.9923H630.6529l-9.582-26.5977h3.082l-9.916,26.5977Z"/><path class="cls-3" d="M670.315,585.5294a35.1848,35.1848,0,0,1-8.8769-1.1055,21.9879,21.9879,0,0,1-6.7344-2.7812l3.4844-7.504a23.1313,23.1313,0,0,0,5.8633,2.5118,24.035,24.035,0,0,0,6.666.9726,10.9259,10.9259,0,0,0,5.125-.8711A2.6754,2.6754,0,0,0,677.35,574.34a2.0539,2.0539,0,0,0-1.1719-1.91,10.3263,10.3263,0,0,0-3.1152-.9707q-1.9453-.3341-4.2559-.67-2.3115-.3339-4.6562-.9043a15.7338,15.7338,0,0,1-4.2871-1.7089,8.7226,8.7226,0,0,1-3.1153-3.0821,9.6041,9.6041,0,0,1-1.1738-5.0254,9.7189,9.7189,0,0,1,1.9766-6.0293,13.0813,13.0813,0,0,1,5.7285-4.1211,24.081,24.081,0,0,1,8.9785-1.5078,36.3048,36.3048,0,0,1,7.5039.8047,20.3474,20.3474,0,0,1,6.3652,2.3457l-3.4843,7.4356a17.6515,17.6515,0,0,0-5.26-2.1094,24.39,24.39,0,0,0-5.125-.57,10.5125,10.5125,0,0,0-5.0918.9375,2.764,2.764,0,0,0-1.6074,2.4121,2.1712,2.1712,0,0,0,1.1718,2.01,10.6792,10.6792,0,0,0,3.1153,1.0722q1.9423.4044,4.2539.7051a38.4369,38.4369,0,0,1,4.6562.9043,16.7523,16.7523,0,0,1,4.2559,1.707,8.9521,8.9521,0,0,1,3.1152,3.0157,9.2251,9.2251,0,0,1,1.2051,4.9921,9.3814,9.3814,0,0,1-2.01,5.93,13.2024,13.2024,0,0,1-5.7949,4.0528A25.4575,25.4575,0,0,1,670.315,585.5294Z"/></g></svg>