<svg xmlns="http://www.w3.org/2000/svg" viewBox="0 0 3611.43 753.88"><defs><style>.cls-1{fill:#fff;}.cls-2{isolation:isolate;}.cls-3{fill:#1c1e43;}</style></defs><g id="Capa_6" data-name="Capa 6"><rect class="cls-1" x="-0.71" width="3611.29" height="753.88"/></g><g id="Ellipse_1" data-name="Ellipse 1" class="cls-2"><path class="cls-3" d="M268.15,394.2a312.71,312.71,0,0,0-81.5,50.5v290h-157v-484h80l44,69q35-27,81-48.5t83-21.5l31,125Q313.63,374.7,268.15,394.2Z"/><path class="cls-3" d="M633.64,234.7q74,0,125,34t76.5,91q25.5,57,25.5,128v47h-311q22,85,128,85,69,0,137-38l44,109q-34,25-83.5,40t-108.5,15q-133,0-209.5-67t-76.5-186q0-78,32-136.5t89.5-90Q559.64,234.7,633.64,234.7Zm-4,129q-33,0-55.5,22.5t-26.5,59.5h164q-6-37-26.5-59.5T629.64,363.7Z"/><path class="cls-3" d="M1408.63,249.7l-191,485h-142l-178-460,148-43,104,302,100-284Z"/><path class="cls-3" d="M1635.63,96.7q0,35-25.5,60.5t-61.5,25.5q-35,0-60.5-25.5t-25.5-60.5q0-36,25.5-61.5t60.5-25.5q36,0,61.5,25.5T1635.63,96.7Zm-8,153v485h-157v-485Z"/><path class="cls-3" d="M1954.61,234.7q74,0,125,34t76.5,91q25.5,57,25.5,128v47h-311q22,85,128,85,69,0,137-38l44,109q-34,25-83.5,40t-108.5,15q-133,0-209.5-67t-76.5-186q0-78,32-136.5t89.5-90Q1880.61,234.7,1954.61,234.7Zm-4,129q-33,0-55.5,22.5t-26.5,59.5h164q-6-37-26.5-59.5T1950.61,363.7Z"/><path class="cls-3" d="M2958.6,249.7l-158,485h-138l-83-274-81,274h-138l-147-460,148-43,73,296,68-278h158l73,278,66-278Z"/><path class="cls-3" d="M3180.6,745.7q-40,0-97-13t-91-40l46-102a359.14,359.14,0,0,0,68.5,24.5q37.5,9.51,63.5,9.5,24,0,42.5-8.5t18.5-23.5q0-13-17.5-25t-48.5-22q-73-25-120-62t-47-94q0-72,54-113.5t148-41.5q38,0,88.5,12.5t85.5,38.5l-45,102q-70-31-124-31-23,0-38,9t-15,23q0,16,63,38,167,58,167,162,0,75-51.5,116T3180.6,745.7Z"/><path class="cls-3" d="M3600.6,652.7q0,34-23.5,58t-58.5,24q-35,0-59-24t-24-58q0-35,24-59t59-24q35,0,58.5,24T3600.6,652.7Z"/></g></svg>