<svg xmlns="http://www.w3.org/2000/svg" viewBox="0 0 3611.4252 753.8824"><defs><style>.cls-1{fill:#2a3042;}.cls-2{isolation:isolate;}.cls-3{fill:#fff;}</style></defs><g id="Capa_6" data-name="Capa 6"><rect class="cls-1" x="-0.7059" width="3611.2941" height="753.8824"/></g><g id="Ellipse_1" data-name="Ellipse 1" class="cls-2"><path class="cls-3" d="M268.1407,394.1974a312.9135,312.9135,0,0,0-81.5,50.5v290h-157v-484h80l44,69q34.9923-27,81-48.5,45.9845-21.4922,83-21.5l31,125Q313.6252,374.6974,268.1407,394.1974Z"/><path class="cls-3" d="M633.6373,234.6974q73.9922,0,125,34,51,34.0078,76.5,91,25.5,57,25.5,128v47h-311q21.9845,85.0078,128,85,69,0,137-38l44,109q-34.0078,25.0078-83.5,40-49.5,15-108.5,15-133.0078,0-209.5-67-76.5-66.9843-76.5-186,0-78,32-136.5,31.9922-58.5,89.5-90Q559.6295,234.6974,633.6373,234.6974Zm-4,129q-33,0-55.5,22.5t-26.5,59.5h164q-6-36.9843-26.5-59.5Q664.6295,363.6974,629.6373,363.6974Z"/><path class="cls-3" d="M1408.6241,249.6974l-191,485h-142l-178-460,148-43,104,302,100-284Z"/><path class="cls-3" d="M1635.62,96.6974q0,35.0157-25.5,60.5-25.5,25.5-61.5,25.5-35.0155,0-60.5-25.5-25.5-25.5-25.5-60.5,0-36,25.5-61.5t60.5-25.5q36,0,61.5,25.5T1635.62,96.6974Zm-8,153v485h-157v-485Z"/><path class="cls-3" d="M1954.6056,234.6974q73.9921,0,125,34,51,34.0078,76.5,91,25.5,57,25.5,128v47h-311q21.9843,85.0078,128,85,69,0,137-38l44,109q-34.0078,25.0078-83.5,40-49.5,15-108.5,15-133.0079,0-209.5-67-76.5-66.9843-76.5-186,0-78,32-136.5,31.9921-58.5,89.5-90Q1880.5978,234.6974,1954.6056,234.6974Zm-4,129q-33,0-55.5,22.5t-26.5,59.5h164q-6-36.9843-26.5-59.5Q1985.5978,363.6974,1950.6056,363.6974Z"/><path class="cls-3" d="M2958.5929,249.6974l-158,485h-138l-83-274-81,274h-138l-147-460,148-43,73,296,68-278h158l73,278,66-278Z"/><path class="cls-3" d="M3180.5919,745.6974q-40.0078,0-97-13-57-12.9843-91-40l46-102a359.1664,359.1664,0,0,0,68.5,24.5q37.5,9.5157,63.5,9.5,24,0,42.5-8.5,18.4922-8.4843,18.5-23.5,0-12.9843-17.5-25-17.5078-12-48.5-22-73.0078-24.9843-120-62-47.0155-36.9843-47-94,0-72,54-113.5,54-41.4843,148-41.5,37.9922,0,88.5,12.5,50.4845,12.5157,85.5,38.5l-45,102q-70.0078-30.9843-124-31-23.0155,0-38,9-15,9-15,23,0,16.0078,63,38,166.9922,58.0078,167,162,0,75-51.5,116Q3279.5764,745.7131,3180.5919,745.6974Z"/><path class="cls-3" d="M3600.589,652.6974q0,34.0078-23.5,58-23.5078,24-58.5,24-35.0157,0-59-24-24-24-24-58,0-34.9922,24-59,24-24,59-24,34.9922,0,58.5,24Q3600.5733,617.6974,3600.589,652.6974Z"/></g></svg>